# xmcd CD database file
#
# Track frame offsets:
#	150
#	63125
#	97017
#	144932
#	203250
#	258187
#
# Disc length: 3844 seconds
#
# Revision: 0
# Processed by: cddbd v1.5.1PL0 Copyright (c) Steve Scherf et al.
# Submitted via: CDex 1.51
#
DISCID=440f0206
DTITLE=ガーシュウィン - ラプソディ　イン　ブルー
DYEAR=1900
DGENRE=Classical
TTITLE0=ラプソディ　イン　ブルー
TTITLE1=アレグレット　グラツィーオーゾ
TTITLE2=アンダンテ　マ　コン　リトモ　デチーゾ
TTITLE3=ピアノ協奏曲　ヘ調　?
TTITLE4=ピアノ協奏曲　ヘ調　?
TTITLE5=ピアノ協奏曲　ヘ調　?
EXTD=
EXTT0=
EXTT1=
EXTT2=
EXTT3=
EXTT4=
EXTT5=
PLAYORDER=
